<svg width="1600" height="900" viewBox="0 0 1600 900" fill="none" xmlns="http://www.w3.org/2000/svg">
  <defs>
    <linearGradient id="ch1Sky" x1="800" y1="0" x2="800" y2="900" gradientUnits="userSpaceOnUse">
      <stop stop-color="#243D72"/>
      <stop offset="0.48" stop-color="#1A2740"/>
      <stop offset="1" stop-color="#0A111A"/>
    </linearGradient>
    <linearGradient id="ch1MountainFar" x1="800" y1="260" x2="800" y2="760" gradientUnits="userSpaceOnUse">
      <stop stop-color="#182538"/>
      <stop offset="1" stop-color="#0E1723"/>
    </linearGradient>
    <linearGradient id="ch1MountainMid" x1="800" y1="360" x2="800" y2="860" gradientUnits="userSpaceOnUse">
      <stop stop-color="#22324A"/>
      <stop offset="1" stop-color="#141E28"/>
    </linearGradient>
    <linearGradient id="cliffStone" x1="0" y1="0" x2="1" y2="1">
      <stop stop-color="#66513A"/>
      <stop offset="1" stop-color="#1B2028"/>
    </linearGradient>
    <filter id="ch1Glow" x="-30%" y="-30%" width="160%" height="160%">
      <feGaussianBlur stdDeviation="18"/>
    </filter>
  </defs>

  <rect width="1600" height="900" fill="url(#ch1Sky)"/>
  <circle cx="1228" cy="128" r="78" fill="#F2E6B3" fill-opacity="0.9"/>
  <ellipse cx="1228" cy="128" rx="120" ry="120" fill="#F2E6B3" fill-opacity="0.12" filter="url(#ch1Glow)"/>

  <g opacity="0.34">
    <circle cx="184" cy="182" r="2" fill="white"/>
    <circle cx="228" cy="110" r="3" fill="white"/>
    <circle cx="330" cy="160" r="2" fill="white"/>
    <circle cx="950" cy="108" r="2" fill="white"/>
    <circle cx="1072" cy="158" r="3" fill="white"/>
    <circle cx="1312" cy="192" r="2" fill="white"/>
    <circle cx="1398" cy="130" r="2" fill="white"/>
  </g>

  <path d="M0 330L142 266L284 306L420 232L590 312L742 230L910 316L1086 214L1268 304L1432 248L1600 310V900H0V330Z" fill="url(#ch1MountainFar)"/>
  <path d="M0 430L164 370L310 404L472 334L654 438L840 352L1006 444L1200 330L1382 420L1600 360V900H0V430Z" fill="url(#ch1MountainMid)"/>
  <path d="M0 532L188 490L362 544L548 464L736 570L918 456L1112 552L1290 478L1600 564V900H0V532Z" fill="#192430"/>

  <g opacity="0.94">
    <path d="M216 646C250 552 314 496 392 482C470 470 536 436 592 378" stroke="#5F6CE4" stroke-width="16" stroke-linecap="round" stroke-opacity="0.2"/>
    <path d="M500 732C580 660 650 592 720 482C770 404 846 320 936 284C1028 246 1116 284 1204 352" stroke="#F5C451" stroke-width="34" stroke-linecap="round" stroke-opacity="0.22"/>
    <path d="M500 732C580 660 650 592 720 482C770 404 846 320 936 284C1028 246 1116 284 1204 352" stroke="#FFD473" stroke-width="14" stroke-linecap="round" stroke-dasharray="30 24"/>
  </g>

  <g opacity="0.96">
    <rect x="166" y="580" width="198" height="210" rx="94" fill="url(#cliffStone)"/>
    <rect x="340" y="500" width="194" height="252" rx="98" fill="url(#cliffStone)"/>
    <rect x="538" y="382" width="212" height="336" rx="104" fill="url(#cliffStone)"/>
    <rect x="820" y="276" width="210" height="336" rx="96" fill="#443A58"/>
    <rect x="1044" y="338" width="228" height="354" rx="108" fill="url(#cliffStone)"/>
    <rect x="1214" y="478" width="190" height="238" rx="94" fill="#2E364A"/>

    <path d="M706 324L780 222L846 324H706Z" fill="#705842"/>
    <rect x="744" y="324" width="68" height="192" rx="18" fill="#4E3D31"/>
    <rect x="1112" y="424" width="178" height="188" rx="28" fill="#536180"/>
    <path d="M1168 362L1250 362L1282 424H1138L1168 362Z" fill="#655342"/>
    <circle cx="1242" cy="520" r="20" fill="#A88CFF"/>
    <circle cx="1242" cy="520" r="44" fill="#A88CFF" fill-opacity="0.12" filter="url(#ch1Glow)"/>
  </g>

  <ellipse cx="810" cy="744" rx="452" ry="104" fill="#0D141E"/>
</svg>
