<svg width="1600" height="900" viewBox="0 0 1600 900" fill="none" xmlns="http://www.w3.org/2000/svg">
  <defs>
    <linearGradient id="fortSky" x1="800" y1="0" x2="800" y2="900" gradientUnits="userSpaceOnUse">
      <stop stop-color="#213353"/>
      <stop offset="0.45" stop-color="#171D2A"/>
      <stop offset="1" stop-color="#081018"/>
    </linearGradient>
    <linearGradient id="mountainFar" x1="800" y1="240" x2="800" y2="760" gradientUnits="userSpaceOnUse">
      <stop stop-color="#25344C"/>
      <stop offset="1" stop-color="#121A24"/>
    </linearGradient>
    <linearGradient id="mountainMid" x1="800" y1="360" x2="800" y2="820" gradientUnits="userSpaceOnUse">
      <stop stop-color="#2E3D57"/>
      <stop offset="1" stop-color="#141B24"/>
    </linearGradient>
    <linearGradient id="castleStone" x1="800" y1="170" x2="800" y2="720" gradientUnits="userSpaceOnUse">
      <stop stop-color="#6B5139"/>
      <stop offset="0.52" stop-color="#42302B"/>
      <stop offset="1" stop-color="#1E2027"/>
    </linearGradient>
    <linearGradient id="towerStone" x1="0" y1="0" x2="1" y2="1">
      <stop stop-color="#7C6145"/>
      <stop offset="1" stop-color="#26222B"/>
    </linearGradient>
    <linearGradient id="goldGlow" x1="800" y1="0" x2="800" y2="1">
      <stop stop-color="#FFD98A"/>
      <stop offset="1" stop-color="#8A673F"/>
    </linearGradient>
    <filter id="fortGlow" x="-30%" y="-30%" width="160%" height="160%">
      <feGaussianBlur stdDeviation="18"/>
    </filter>
  </defs>

  <rect width="1600" height="900" fill="url(#fortSky)"/>
  <circle cx="1188" cy="118" r="76" fill="#F2E6B3" fill-opacity="0.9"/>
  <ellipse cx="1188" cy="118" rx="118" ry="118" fill="#F2E6B3" fill-opacity="0.12" filter="url(#fortGlow)"/>

  <g opacity="0.34">
    <circle cx="182" cy="160" r="3" fill="white"/>
    <circle cx="258" cy="112" r="2" fill="white"/>
    <circle cx="362" cy="184" r="2" fill="white"/>
    <circle cx="954" cy="108" r="3" fill="white"/>
    <circle cx="1044" cy="150" r="2" fill="white"/>
    <circle cx="1284" cy="164" r="3" fill="white"/>
    <circle cx="1368" cy="116" r="2" fill="white"/>
  </g>

  <path d="M0 344L150 272L284 304L424 236L580 318L744 234L920 328L1108 216L1276 310L1442 250L1600 316V900H0V344Z" fill="url(#mountainFar)"/>
  <path d="M0 444L170 388L336 424L510 344L678 432L850 352L1040 446L1212 352L1398 432L1600 378V900H0V444Z" fill="url(#mountainMid)"/>
  <path d="M0 566L220 520L420 584L640 492L820 596L1010 514L1246 600L1444 540L1600 576V900H0V566Z" fill="#111A24"/>

  <ellipse cx="800" cy="730" rx="520" ry="116" fill="#0B1118"/>
  <ellipse cx="800" cy="690" rx="392" ry="76" fill="#10222B" fill-opacity="0.46"/>

  <g opacity="0.96">
    <path d="M438 610C462 504 560 430 654 412H946C1042 430 1138 504 1162 610V674H438V610Z" fill="#2C2426"/>
    <rect x="478" y="330" width="644" height="290" rx="42" fill="url(#castleStone)"/>
    <rect x="612" y="232" width="116" height="328" rx="28" fill="url(#towerStone)"/>
    <rect x="872" y="214" width="128" height="350" rx="32" fill="url(#towerStone)"/>
    <rect x="734" y="170" width="172" height="392" rx="42" fill="url(#castleStone)"/>
    <path d="M720 236L820 124L922 236H720Z" fill="#B89866"/>
    <path d="M596 304L670 222L744 304H596Z" fill="#9B7A54"/>
    <path d="M860 286L936 196L1014 286H860Z" fill="#9B7A54"/>
    <path d="M494 412L566 332L642 412H494Z" fill="#7D6246"/>
    <path d="M958 412L1030 332L1106 412H958Z" fill="#7D6246"/>
    <rect x="512" y="560" width="576" height="118" rx="28" fill="#2A2B32"/>
    <rect x="726" y="522" width="150" height="156" rx="24" fill="#181B24"/>
    <rect x="758" y="564" width="86" height="114" rx="18" fill="#0D1018"/>
    <rect x="792" y="584" width="18" height="94" rx="9" fill="#F5C451" fill-opacity="0.4"/>
  </g>

  <g opacity="0.94">
    <rect x="370" y="560" width="144" height="124" rx="24" fill="#483425"/>
    <rect x="1086" y="560" width="144" height="124" rx="24" fill="#4D4936"/>
    <rect x="576" y="642" width="148" height="62" rx="20" fill="#413028"/>
    <rect x="880" y="642" width="148" height="62" rx="20" fill="#3D3833"/>
    <path d="M576 642L650 590L724 642H576Z" fill="#72523A"/>
    <path d="M880 642L954 586L1028 642H880Z" fill="#72523A"/>
  </g>

  <g fill="#FFD98A" opacity="0.9">
    <rect x="532" y="378" width="16" height="22" rx="4"/>
    <rect x="562" y="378" width="16" height="22" rx="4"/>
    <rect x="592" y="378" width="16" height="22" rx="4"/>
    <rect x="938" y="366" width="16" height="22" rx="4"/>
    <rect x="968" y="366" width="16" height="22" rx="4"/>
    <rect x="998" y="366" width="16" height="22" rx="4"/>
    <rect x="774" y="252" width="18" height="26" rx="4"/>
    <rect x="810" y="252" width="18" height="26" rx="4"/>
    <rect x="846" y="252" width="18" height="26" rx="4"/>
    <rect x="770" y="322" width="20" height="30" rx="5"/>
    <rect x="808" y="322" width="20" height="30" rx="5"/>
    <rect x="846" y="322" width="20" height="30" rx="5"/>
    <rect x="534" y="582" width="18" height="24" rx="4"/>
    <rect x="1068" y="582" width="18" height="24" rx="4"/>
  </g>

  <g opacity="0.86">
    <path d="M670 250V384" stroke="#5E4A35" stroke-width="8" stroke-linecap="round"/>
    <path d="M934 226V378" stroke="#6B5A7B" stroke-width="8" stroke-linecap="round"/>
    <path d="M820 124V344" stroke="#6A543E" stroke-width="10" stroke-linecap="round"/>
    <path d="M670 246L620 218H720L670 246Z" fill="#7A3442"/>
    <path d="M934 222L884 194H984L934 222Z" fill="#473A78"/>
    <path d="M820 120L760 92H880L820 120Z" fill="#8E6E48"/>
  </g>
</svg>
